<svg xmlns="http://www.w3.org/2000/svg" viewBox="0 0 512 512" width="100%" height="100%">
  <defs>
    <linearGradient id="r-grad" x1="0%" y1="0%" x2="100%" y2="100%">
      <stop offset="0%" stop-color="#f97316" /> <!-- orange-500 -->
      <stop offset="50%" stop-color="#ec4899" /> <!-- pink-500 -->
      <stop offset="100%" stop-color="#8b5cf6" /> <!-- violet-500 -->
    </linearGradient>
  </defs>
  <!-- Stylish curved R letter -->
  <path d="M 120,440 L 120,80 A 10,10 0 0 1 130,70 L 280,70 C 370,70 420,120 420,195 C 420,260 375,305 300,315 L 405,435 A 10,10 0 0 1 397,450 L 320,450 A 10,10 0 0 1 312,442 L 217,330 L 190,330 L 190,440 A 10,10 0 0 1 180,450 L 130,450 A 10,10 0 0 1 120,440 Z M 190,140 L 190,260 L 270,260 C 320,260 350,235 350,200 C 350,165 320,140 270,140 Z" fill="url(#r-grad)" />
</svg>